<svg width="140" height="64" viewBox="0 0 140 64" fill="none" xmlns="http://www.w3.org/2000/svg">
<path d="M123.789 32.4184L124.915 23.8101L118.613 29.1551L114.787 23.585L122.833 20.3217L115.012 17.5085L117.938 11.3758L124.746 16.7771L123.283 8.56263L130.035 8L128.853 16.6646L135.211 11.2633L139.037 16.8334L130.935 20.1529L138.812 22.9098L135.886 29.0426L129.022 23.7538L130.541 31.8557L123.789 32.4184Z" fill="white"/>
<path d="M53.2732 33.4797C54.9765 33.4797 56.4463 33.7681 57.6825 34.345C58.9188 34.9219 59.8803 35.7118 60.5671 36.7145C61.2677 37.7035 61.6523 38.8093 61.721 40.0318V40.2791H57.5383L57.5177 40.1348C57.3941 39.1871 56.9682 38.4178 56.2402 37.8272C55.5122 37.2228 54.5232 36.9206 53.2732 36.9206C52.4765 36.9206 51.7828 37.0373 51.1922 37.2708C50.6015 37.5043 50.1482 37.8409 49.8323 38.2805C49.5164 38.7063 49.3584 39.2077 49.3584 39.7846V39.8052C49.3584 40.2447 49.4614 40.6431 49.6675 41.0002C49.8872 41.3574 50.2375 41.6664 50.7183 41.9274C51.199 42.1884 51.8172 42.4082 52.5727 42.5868L56.1166 43.4109C58.3281 43.9192 59.8941 44.6404 60.8144 45.5744C61.7484 46.4947 62.2155 47.7379 62.2155 49.3038V49.3244C62.2155 50.643 61.8377 51.8038 61.0822 52.8065C60.3268 53.8092 59.2828 54.5922 57.9504 55.1554C56.6317 55.7186 55.1207 56.0002 53.4174 56.0002C51.6043 56.0002 50.0452 55.7255 48.7403 55.176C47.4491 54.6128 46.4326 53.8367 45.6908 52.8477C44.9491 51.845 44.5026 50.6842 44.3515 49.3656L44.3309 49.1801H48.7403L48.7815 49.3862C49.0012 50.3752 49.4889 51.1513 50.2444 51.7145C50.9999 52.2639 52.0576 52.5386 53.4174 52.5386C54.324 52.5386 55.0933 52.4288 55.7251 52.209C56.357 51.9755 56.8446 51.6458 57.188 51.22C57.5314 50.7942 57.7031 50.2859 57.7031 49.6953V49.6746C57.7031 48.9742 57.4765 48.4109 57.0232 47.9851C56.5699 47.5593 55.7594 47.2021 54.5919 46.9137L51.0479 46.1101C49.6743 45.7942 48.5273 45.3615 47.607 44.812C46.7005 44.2626 46.0205 43.5895 45.5672 42.7928C45.1139 41.9961 44.8873 41.0757 44.8873 40.0318V40.0112C44.8873 38.7063 45.2375 37.5661 45.9381 36.5909C46.6386 35.6019 47.6208 34.8395 48.8845 34.3038C50.1482 33.7544 51.6111 33.4797 53.2732 33.4797Z" fill="white"/>
<path d="M71.508 33.8917H75.5671V37.4357H71.508V49.5922C71.508 50.6911 71.7485 51.4466 72.2292 51.8587C72.7099 52.2571 73.4242 52.4562 74.372 52.4562C74.6055 52.4562 74.8185 52.4494 75.0108 52.4356C75.2168 52.4082 75.4023 52.3876 75.5671 52.3738V55.8147C75.3061 55.8559 74.9764 55.8972 74.5781 55.9384C74.1797 55.9796 73.7539 56.0002 73.3006 56.0002C71.1578 56.0002 69.5575 55.5194 68.4998 54.5579C67.4559 53.5826 66.9339 52.0098 66.9339 49.8395V37.4357H63.8226V33.8917H66.9339V28.2462H71.508V33.8917Z" fill="white"/>
<path fill-rule="evenodd" clip-rule="evenodd" d="M87.7648 33.4797C89.7978 33.4797 91.5423 33.933 92.9983 34.8395C94.4681 35.7324 95.6013 37.003 96.398 38.6513C97.1947 40.2859 97.5931 42.1885 97.5931 44.3587V45.8628H82.245C82.2669 47.1761 82.4995 48.3093 82.9434 49.2626C83.4242 50.2516 84.1042 51.0139 84.9833 51.5496C85.8624 52.0716 86.8995 52.3326 88.0945 52.3326C88.9736 52.3326 89.7497 52.2021 90.4228 51.9411C91.0959 51.6664 91.6522 51.3092 92.0917 50.8697C92.545 50.4164 92.861 49.915 93.0395 49.3656L93.1014 49.2007H97.3458L97.3046 49.4274C97.1261 50.279 96.7895 51.0964 96.295 51.8793C95.8005 52.6623 95.1549 53.3697 94.3582 54.0016C93.5753 54.6197 92.648 55.1073 91.5766 55.4645C90.5052 55.8216 89.3102 56.0002 87.9915 56.0002C85.8761 56.0002 84.0492 55.5469 82.5107 54.6403C80.986 53.72 79.8116 52.4219 78.9874 50.7461C78.177 49.0565 77.7717 47.0716 77.7717 44.7914V44.7708C77.7718 42.5181 78.1838 40.5469 79.008 38.8574C79.8322 37.1541 80.9929 35.8354 82.4901 34.9014C83.9874 33.9536 85.7456 33.4797 87.7648 33.4797ZM87.7854 37.1266C86.7278 37.1266 85.7799 37.3876 84.942 37.9096C84.1042 38.4315 83.4448 39.2008 82.964 40.2173C82.6222 40.9302 82.4026 41.7614 82.3038 42.7104H93.1696C93.0756 41.7163 92.8611 40.8577 92.5244 40.1348C92.0711 39.1184 91.4324 38.3629 90.6082 37.8684C89.7978 37.3739 88.8568 37.1266 87.7854 37.1266Z" fill="white"/>
<path fill-rule="evenodd" clip-rule="evenodd" d="M42.6208 55.5675H37.7582L35.0418 47.5318H23.5858L20.8626 55.5675H16L26.8173 25.8354H31.8241L42.6208 55.5675ZM24.8423 43.823H33.788L29.3722 30.7599H29.2692L24.8423 43.823Z" fill="white"/>
<path d="M110.594 33.4797C110.924 33.4797 111.219 33.5003 111.48 33.5415C111.755 33.5689 111.975 33.6033 112.14 33.6445V37.786C111.961 37.7173 111.693 37.6623 111.336 37.6211C110.979 37.5662 110.581 37.5387 110.141 37.5387C109.193 37.5387 108.369 37.7448 107.669 38.1568C106.968 38.5552 106.432 39.139 106.061 39.9082C105.691 40.6637 105.505 41.5772 105.505 42.6486V55.5675H101.013V33.8917H105.505V37.6005H105.588C105.931 36.3231 106.542 35.3203 107.421 34.5923C108.3 33.8506 109.358 33.4797 110.594 33.4797Z" fill="white"/>
</svg>
