<svg width="122" height="56" viewBox="0 0 122 56" fill="none" xmlns="http://www.w3.org/2000/svg">
<path d="M108.648 28.3661L109.633 20.8338L104.119 25.5107L100.771 20.6369L107.811 17.7815L100.968 15.32L103.528 9.95383L109.485 14.68L108.205 7.4923L114.113 7L113.079 14.5815L118.642 9.85537L121.99 14.7292L114.901 17.6338L121.793 20.0461L119.233 25.4122L113.227 20.7846L114.556 27.8738L108.648 28.3661Z" fill="url(#paint0_linear_17_1239)"/>
<path d="M46.9471 29.2947C48.4374 29.2947 49.7235 29.5471 50.8052 30.0519C51.8869 30.5567 52.7283 31.2478 53.3293 32.1252C53.9422 32.9906 54.2788 33.9582 54.3389 35.0278V35.2442H50.679L50.661 35.118C50.5528 34.2887 50.1802 33.6156 49.5432 33.0988C48.9062 32.57 48.0408 32.3055 46.9471 32.3055C46.25 32.3055 45.643 32.4077 45.1262 32.612C44.6094 32.8163 44.2127 33.1108 43.9363 33.4954C43.6598 33.868 43.5216 34.3067 43.5216 34.8115V34.8295C43.5216 35.2141 43.6118 35.5627 43.792 35.8752C43.9843 36.1877 44.2908 36.4581 44.7115 36.6865C45.1322 36.9149 45.673 37.1072 46.3341 37.2634L49.435 37.9846C51.3701 38.4293 52.7403 39.0603 53.5456 39.8776C54.3629 40.6829 54.7715 41.7707 54.7716 43.1408V43.1588C54.7716 44.3126 54.441 45.3283 53.78 46.2057C53.1189 47.0831 52.2054 47.7682 51.0396 48.261C49.8858 48.7538 48.5637 49.0002 47.0733 49.0002C45.4867 49.0002 44.1226 48.7598 42.9807 48.279C41.851 47.7862 40.9615 47.1071 40.3125 46.2417C39.6635 45.3644 39.2728 44.3487 39.1406 43.1949L39.1226 43.0326H42.9807L43.0168 43.2129C43.2091 44.0783 43.6358 44.7574 44.2968 45.2502C44.9579 45.7309 45.8834 45.9713 47.0733 45.9713C47.8665 45.9713 48.5396 45.8752 49.0925 45.6829C49.6454 45.4785 50.0721 45.1901 50.3725 44.8175C50.673 44.4449 50.8233 44.0001 50.8233 43.4833V43.4653C50.8232 42.8524 50.6249 42.3595 50.2283 41.987C49.8317 41.6144 49.1225 41.3019 48.1009 41.0495L45 40.3463C43.7981 40.0699 42.7944 39.6913 41.9892 39.2105C41.1959 38.7298 40.6009 38.1408 40.2043 37.4437C39.8077 36.7466 39.6094 35.9413 39.6094 35.0278V35.0098C39.6094 33.868 39.9159 32.8704 40.5288 32.017C41.1418 31.1517 42.0012 30.4846 43.1069 30.0158C44.2127 29.5351 45.4928 29.2947 46.9471 29.2947Z" fill="#3D3B3B"/>
<path d="M62.9025 29.6553H66.4542V32.7562H62.9025V43.3932C62.9025 44.3547 63.1129 45.0158 63.5335 45.3764C63.9542 45.7249 64.5792 45.8992 65.4085 45.8992C65.6129 45.8992 65.7992 45.8932 65.9674 45.8812C66.1477 45.8571 66.31 45.8391 66.4542 45.8271V48.8379C66.2258 48.874 65.9374 48.91 65.5888 48.9461C65.2403 48.9821 64.8677 49.0002 64.471 49.0002C62.5961 49.0002 61.1958 48.5795 60.2703 47.7381C59.3569 46.8848 58.9002 45.5085 58.9002 43.6095V32.7562H56.1778V29.6553H58.9002V24.7154H62.9025V29.6553Z" fill="#3D3B3B"/>
<path fill-rule="evenodd" clip-rule="evenodd" d="M77.1272 29.2947C78.9061 29.2947 80.4325 29.6913 81.7066 30.4846C82.9926 31.2658 83.9842 32.3777 84.6813 33.8199C85.3784 35.2502 85.727 36.9149 85.727 38.8139V40.13H72.2974C72.3166 41.2791 72.52 42.2706 72.9085 43.1047C73.3292 43.9701 73.9242 44.6372 74.6934 45.1059C75.4626 45.5627 76.37 45.791 77.4157 45.791C78.1849 45.791 78.864 45.6768 79.453 45.4485C80.0419 45.2081 80.5287 44.8956 80.9133 44.511C81.3099 44.1144 81.5864 43.6756 81.7426 43.1949L81.7967 43.0507H85.5106L85.4746 43.249C85.3183 43.9941 85.0238 44.7093 84.5912 45.3944C84.1585 46.0795 83.5935 46.6985 82.8965 47.2514C82.2114 47.7922 81.4001 48.2189 80.4626 48.5314C79.5251 48.8439 78.4794 49.0002 77.3256 49.0002C75.4746 49.0002 73.8761 48.6035 72.5299 47.8103C71.1958 47.005 70.1681 45.8691 69.447 44.4028C68.7379 42.9245 68.3833 41.1876 68.3833 39.1925V39.1745C68.3833 37.2034 68.7439 35.4785 69.465 34.0002C70.1862 32.5099 71.2018 31.356 72.5119 30.5387C73.822 29.7094 75.3604 29.2947 77.1272 29.2947ZM77.1453 32.4858C76.2198 32.4858 75.3905 32.7142 74.6573 33.1709C73.9242 33.6276 73.3472 34.3007 72.9265 35.1901C72.6274 35.8139 72.4353 36.5412 72.3489 37.3716H81.8564C81.7742 36.5018 81.5865 35.7505 81.2919 35.118C80.8953 34.2286 80.3363 33.5675 79.6152 33.1348C78.9061 32.7022 78.0828 32.4858 77.1453 32.4858Z" fill="#3D3B3B"/>
<path fill-rule="evenodd" clip-rule="evenodd" d="M37.6262 48.6215H33.3714L30.9946 41.5903H20.9706L18.5878 48.6215H14.333L23.7981 22.606H28.1791L37.6262 48.6215ZM22.07 38.3451H29.8975L26.0337 26.9149H25.9435L22.07 38.3451Z" fill="#3D3B3B"/>
<path d="M97.1031 29.2947C97.3916 29.2947 97.65 29.3127 97.8784 29.3488C98.1187 29.3728 98.3111 29.4029 98.4553 29.4389V33.0627C98.299 33.0026 98.0647 32.9545 97.7522 32.9185C97.4397 32.8704 97.0911 32.8464 96.7065 32.8464C95.8772 32.8464 95.156 33.0267 94.543 33.3872C93.9301 33.7358 93.4613 34.2466 93.1368 34.9197C92.8123 35.5807 92.65 36.38 92.65 37.3175V48.6215H88.7197V29.6553H92.65V32.9005H92.7221C93.0226 31.7827 93.5575 30.9053 94.3267 30.2682C95.0959 29.6192 96.0214 29.2947 97.1031 29.2947Z" fill="#3D3B3B"/>
<defs>
<linearGradient id="paint0_linear_17_1239" x1="121.99" y1="7" x2="97.1655" y2="12.722" gradientUnits="userSpaceOnUse">
<stop stop-color="#CB9AD2"/>
<stop offset="0.5" stop-color="#BBB3D9"/>
<stop offset="1" stop-color="#ABC2E2"/>
</linearGradient>
</defs>
</svg>
